# xmcd CD database file
#
# Track frame offsets:
#	150
#	23562
#	46455
#	71287
#	103407
#	115275
#	144475
#	157182
#	175962
#	206125
#	219162
#	229175
#	248987
#	260130
#	275037
#	297862
#
# Disc length: 4300 seconds
#
# Revision: 0
# Processed by: cddbd v1.4PL0 Copyright (c) Steve Scherf et al.
# Submitted via: CDex 1.50
#
DISCID=fc10ca10
DTITLE=Diverse-The Legendary Years-Vol. 2 - The Legendary Years-Vol. 2
DYEAR=1900
DGENRE=Jazz
TTITLE0=the modern swedes-On with the dance
TTITLE1=the modern swedes-Lili
TTITLE2=Lars Gullin-Lotus Corniculatus
TTITLE3=Lars Gullin-Galium Verum
TTITLE4=Georg Riedel Quintet-Shorty I'm sorry
TTITLE5=Reinhold Svensson Quartet-i let a song go out of my heart
TTITLE6=Jan Johansson Trio-Whwn johnny comes marching home
TTITLE7=Jan Johansson Trio-The nearness of you
TTITLE8=Rolf Ericson quartet-What is this thing called love
TTITLE9=Gunnar Johnson Quintet-Maid in Sweden
TTITLE10=Gunnar Johnson Quintet-Blues for lange
TTITLE11=Gunnar Johnson Quintet-Pia
TTITLE12=Gunnar Johnson Quintet-Turnstyle
TTITLE13=Anders Burman Sextet-Lester be good
TTITLE14=Åke Persson-The midnight sun never sets
TTITLE15=Rune Gustafsson-If you live
EXTD=
EXTT0=
EXTT1=
EXTT2=
EXTT3=
EXTT4=
EXTT5=
EXTT6=
EXTT7=
EXTT8=
EXTT9=
EXTT10=
EXTT11=
EXTT12=
EXTT13=
EXTT14=
EXTT15=
PLAYORDER=
